<?xml version="1.0" encoding="utf-8"?>
<!-- Generator: Adobe Illustrator 19.0.0, SVG Export Plug-In . SVG Version: 6.00 Build 0)  -->
<svg version="1.1" id="Calque_1" xmlns="http://www.w3.org/2000/svg" xmlns:xlink="http://www.w3.org/1999/xlink" x="0px" y="0px"
	 viewBox="0 0 420 120" style="enable-background:new 0 0 420 120;" xml:space="preserve">
<metadata><?xpacket begin="﻿" id="W5M0MpCehiHzreSzNTczkc9d"?>
<x:xmpmeta xmlns:x="adobe:ns:meta/" x:xmptk="Adobe XMP Core 5.6-c067 79.157747, 2015/03/30-23:40:42        ">
   <rdf:RDF xmlns:rdf="http://www.w3.org/1999/02/22-rdf-syntax-ns#">
      <rdf:Description rdf:about=""/>
   </rdf:RDF>
</x:xmpmeta>
                                                                                                    
                                                                                                    
                                                                                                    
                                                                                                    
                                                                                                    
                                                                                                    
                                                                                                    
                                                                                                    
                                                                                                    
                                                                                                    
                                                                                                    
                                                                                                    
                                                                                                    
                                                                                                    
                                                                                                    
                                                                                                    
                                                                                                    
                                                                                                    
                                                                                                    
                                                                                                    
                           
<?xpacket end="w"?></metadata>
<g>
	<path style="fill:#5A535B;" d="M187.8,84.8c0.3,0,0.5,0.1,0.7,0.3c0.2,0.2,0.3,0.4,0.3,0.8v12.7c0,0.3-0.1,0.6-0.3,0.8
		c-0.2,0.2-0.5,0.3-0.7,0.3c-0.3,0-0.6-0.1-0.8-0.3c-0.2-0.2-0.3-0.5-0.3-0.8V93h-5.4v5.6c0,0.3-0.1,0.6-0.3,0.8
		c-0.2,0.2-0.5,0.3-0.7,0.3c-0.3,0-0.6-0.1-0.8-0.3c-0.2-0.2-0.3-0.5-0.3-0.8V85.9c0-0.3,0.1-0.6,0.3-0.8c0.2-0.2,0.5-0.3,0.8-0.3
		c0.3,0,0.5,0.1,0.7,0.3c0.2,0.2,0.3,0.4,0.3,0.8v5h5.4v-5c0-0.3,0.1-0.6,0.3-0.8C187.2,84.9,187.5,84.8,187.8,84.8z"/>
</g>
<g>
	<path style="fill:#5A535B;" d="M196.6,84.8c0.8,0,1.4,0.1,2.1,0.3c0.6,0.2,1.2,0.6,1.6,1s0.8,1,1,1.6c0.2,0.6,0.4,1.3,0.4,2.1v4.8
		c0,0.8-0.1,1.5-0.4,2.1c-0.2,0.6-0.6,1.1-1,1.6s-1,0.8-1.6,1c-0.6,0.2-1.3,0.3-2.1,0.3c-0.8,0-1.5-0.1-2.1-0.3
		c-0.6-0.2-1.2-0.6-1.6-1s-0.8-1-1-1.6c-0.2-0.6-0.4-1.3-0.4-2.1v-4.8c0-0.8,0.1-1.5,0.4-2.1c0.2-0.6,0.6-1.1,1-1.6s1-0.8,1.6-1
		C195.2,85,195.9,84.8,196.6,84.8z M196.6,80.5c0.2,0,0.3,0,0.5,0.1l1.9,1c0.4,0.2,0.6,0.5,0.6,0.9c0,0.3-0.1,0.5-0.3,0.7
		c-0.2,0.2-0.4,0.3-0.7,0.3c-0.1,0-0.1,0-0.2,0s-0.1,0-0.2-0.1l-1.6-0.9l-1.6,0.9c-0.2,0.1-0.3,0.1-0.4,0.1c-0.3,0-0.5-0.1-0.7-0.3
		c-0.2-0.2-0.3-0.4-0.3-0.7c0-0.4,0.2-0.7,0.5-0.9l1.9-1C196.3,80.6,196.4,80.5,196.6,80.5z M196.6,86.9c-0.9,0-1.6,0.3-2.1,0.7
		c-0.5,0.5-0.8,1.2-0.8,2.1v5.1c0,0.9,0.3,1.6,0.8,2.1c0.5,0.5,1.2,0.7,2.1,0.7c0.9,0,1.6-0.2,2.1-0.7c0.5-0.5,0.8-1.2,0.8-2.1v-5.1
		c0-0.9-0.3-1.6-0.8-2.1C198.2,87.1,197.5,86.9,196.6,86.9z"/>
</g>
<g>
	<path style="fill:#5A535B;" d="M208.7,85c0.8,0,1.4,0.1,2,0.3c0.6,0.2,1.1,0.5,1.4,0.9c0.4,0.4,0.7,0.9,0.9,1.4
		c0.2,0.5,0.3,1.1,0.3,1.7c0,1.3-0.4,2.4-1.1,3.1c-0.7,0.8-1.8,1.1-3.3,1.1h-2.6v4.9c0,0.3-0.1,0.6-0.3,0.8
		c-0.2,0.2-0.5,0.3-0.8,0.3c-0.3,0-0.6-0.1-0.8-0.3c-0.2-0.2-0.3-0.5-0.3-0.8V86.3c0-0.3,0.1-0.6,0.4-0.9c0.3-0.2,0.6-0.4,0.9-0.4
		H208.7z M206.3,87.1v4.6h2.4c0.8,0,1.4-0.2,1.8-0.6c0.4-0.4,0.6-1,0.6-1.7c0-0.8-0.2-1.3-0.7-1.7c-0.5-0.4-1.1-0.6-1.8-0.6H206.3z"
		/>
	<path style="fill:#5A535B;" d="M216.5,84.8c0.3,0,0.5,0.1,0.7,0.3c0.2,0.2,0.3,0.4,0.3,0.8v12.7c0,0.3-0.1,0.6-0.3,0.8
		c-0.2,0.2-0.5,0.3-0.7,0.3c-0.3,0-0.6-0.1-0.8-0.3c-0.2-0.2-0.3-0.5-0.3-0.8V85.9c0-0.3,0.1-0.6,0.3-0.8
		C215.9,84.9,216.2,84.8,216.5,84.8z"/>
</g>
<g>
	<path style="fill:#5A535B;" d="M228.5,85c0.3,0,0.5,0.1,0.7,0.3c0.2,0.2,0.3,0.4,0.3,0.7c0,0.3-0.1,0.5-0.3,0.7
		c-0.2,0.2-0.4,0.3-0.7,0.3h-3.1v11.4c0,0.3-0.1,0.6-0.3,0.8c-0.2,0.2-0.5,0.3-0.8,0.3c-0.3,0-0.6-0.1-0.8-0.3
		c-0.2-0.2-0.3-0.5-0.3-0.8V87.1h-3.1c-0.3,0-0.6-0.1-0.7-0.3c-0.2-0.2-0.3-0.5-0.3-0.7c0-0.3,0.1-0.5,0.3-0.7
		c0.2-0.2,0.4-0.3,0.7-0.3H228.5z"/>
</g>
<g>
	<path style="fill:#5A535B;" d="M233.9,84.8c0.2,0,0.5,0.1,0.7,0.2c0.2,0.1,0.4,0.3,0.4,0.6l4.4,12.6c0.1,0.2,0.1,0.3,0.1,0.4
		c0,0.3-0.1,0.5-0.3,0.7c-0.2,0.2-0.5,0.3-0.8,0.3c-0.2,0-0.4-0.1-0.6-0.2c-0.2-0.1-0.3-0.3-0.4-0.5l-0.9-2.9h-5.1l-0.9,2.9
		c-0.1,0.2-0.2,0.4-0.4,0.5c-0.2,0.1-0.4,0.2-0.6,0.2c-0.3,0-0.6-0.1-0.8-0.3c-0.2-0.2-0.3-0.4-0.3-0.7c0-0.1,0-0.3,0.1-0.4
		l4.4-12.6c0.1-0.2,0.2-0.4,0.5-0.6C233.5,84.9,233.7,84.8,233.9,84.8z M232,94.1h3.9l-1.9-5.9L232,94.1z"/>
</g>
<g>
	<path style="fill:#5A535B;" d="M242.4,84.8c0.3,0,0.5,0.1,0.7,0.3c0.2,0.2,0.3,0.5,0.3,0.8v11.4h5.4c0.3,0,0.6,0.1,0.7,0.3
		c0.2,0.2,0.3,0.4,0.3,0.7c0,0.3-0.1,0.6-0.3,0.7c-0.2,0.2-0.4,0.3-0.7,0.3h-6.2c-0.4,0-0.7-0.1-0.9-0.4c-0.3-0.2-0.4-0.5-0.4-0.9
		V85.9c0-0.3,0.1-0.6,0.3-0.8C241.8,84.9,242.1,84.8,242.4,84.8z"/>
	<path style="fill:#5A535B;" d="M262,85c0.7,0,1.3,0.1,1.9,0.3c0.6,0.2,1,0.5,1.4,0.9c0.4,0.4,0.7,0.8,0.9,1.3
		c0.2,0.5,0.3,1.1,0.3,1.7c0,1-0.3,1.9-0.8,2.5c-0.5,0.7-1.3,1.1-2.2,1.3l2.9,4.8c0,0.1,0.1,0.2,0.1,0.3c0,0.1,0.1,0.2,0.1,0.3
		c0,0.3-0.1,0.6-0.3,0.8c-0.2,0.2-0.5,0.3-0.8,0.3c-0.2,0-0.4,0-0.5-0.1c-0.2-0.1-0.3-0.2-0.4-0.3l-3.5-5.8h-1.9v5.1
		c0,0.3-0.1,0.6-0.3,0.8c-0.2,0.2-0.5,0.3-0.8,0.3c-0.3,0-0.6-0.1-0.8-0.3c-0.2-0.2-0.3-0.5-0.3-0.8V86.3c0-0.3,0.1-0.6,0.4-0.9
		c0.3-0.2,0.6-0.4,0.9-0.4H262z M259.2,87.1v4.4h2.8c0.8,0,1.3-0.2,1.7-0.6c0.4-0.4,0.6-0.9,0.6-1.6c0-0.7-0.2-1.2-0.6-1.6
		c-0.4-0.4-1-0.6-1.7-0.6H259.2z"/>
	<path style="fill:#5A535B;" d="M270.1,84.8c0.3,0,0.5,0.1,0.7,0.3c0.2,0.2,0.3,0.4,0.3,0.8v12.7c0,0.3-0.1,0.6-0.3,0.8
		c-0.2,0.2-0.5,0.3-0.7,0.3c-0.3,0-0.6-0.1-0.8-0.3c-0.2-0.2-0.3-0.5-0.3-0.8V85.9c0-0.3,0.1-0.6,0.3-0.8
		C269.5,84.9,269.8,84.8,270.1,84.8z"/>
</g>
<g>
	<path style="fill:#5A535B;" d="M282.5,84.8c0.3,0,0.5,0.1,0.7,0.3c0.2,0.2,0.3,0.4,0.3,0.7c0,0.1,0,0.2,0,0.3
		c0,0.1-0.1,0.2-0.1,0.3l-3.8,12c-0.1,0.4-0.3,0.7-0.6,0.9c-0.2,0.2-0.5,0.3-0.9,0.3c-0.3,0-0.6-0.1-0.9-0.3
		c-0.2-0.2-0.4-0.5-0.6-0.9l-3.8-12c0-0.1-0.1-0.2-0.1-0.3c0-0.1,0-0.2,0-0.3c0-0.3,0.1-0.5,0.3-0.7c0.2-0.2,0.5-0.3,0.7-0.3
		c0.5,0,0.9,0.3,1,0.8l3.3,10.5l3.2-10.5C281.6,85.1,282,84.8,282.5,84.8z"/>
</g>
<g>
	<path style="fill:#5A535B;" d="M286.6,84.8c0.3,0,0.5,0.1,0.7,0.3c0.2,0.2,0.3,0.4,0.3,0.8v12.7c0,0.3-0.1,0.6-0.3,0.8
		c-0.2,0.2-0.5,0.3-0.7,0.3c-0.3,0-0.6-0.1-0.8-0.3c-0.2-0.2-0.3-0.5-0.3-0.8V85.9c0-0.3,0.1-0.6,0.3-0.8
		C286.1,84.9,286.3,84.8,286.6,84.8z"/>
</g>
<g>
	<path style="fill:#5A535B;" d="M298,85c0.3,0,0.6,0.1,0.7,0.3c0.2,0.2,0.3,0.4,0.3,0.7c0,0.3-0.1,0.6-0.3,0.7
		c-0.2,0.2-0.4,0.3-0.7,0.3h-5.2v3.8h4.9c0.3,0,0.6,0.1,0.8,0.3c0.2,0.2,0.3,0.4,0.3,0.7c0,0.3-0.1,0.6-0.3,0.7
		c-0.2,0.2-0.4,0.3-0.8,0.3h-4.9v4.4h5.4c0.3,0,0.6,0.1,0.7,0.3c0.2,0.2,0.3,0.4,0.3,0.7c0,0.3-0.1,0.6-0.3,0.7
		c-0.2,0.2-0.4,0.3-0.7,0.3H292c-0.4,0-0.7-0.1-0.9-0.4c-0.3-0.2-0.4-0.5-0.4-0.9V86.3c0-0.4,0.1-0.7,0.4-0.9
		c0.3-0.2,0.6-0.4,0.9-0.4H298z"/>
</g>
<g>
	<path style="fill:#5A535B;" d="M306,85c0.7,0,1.3,0.1,1.9,0.3c0.6,0.2,1,0.5,1.4,0.9c0.4,0.4,0.7,0.8,0.9,1.3
		c0.2,0.5,0.3,1.1,0.3,1.7c0,1-0.3,1.9-0.8,2.5c-0.5,0.7-1.3,1.1-2.2,1.3l2.9,4.8c0,0.1,0.1,0.2,0.1,0.3c0,0.1,0.1,0.2,0.1,0.3
		c0,0.3-0.1,0.6-0.3,0.8c-0.2,0.2-0.5,0.3-0.8,0.3c-0.2,0-0.4,0-0.5-0.1c-0.2-0.1-0.3-0.2-0.4-0.3l-3.5-5.8h-1.9v5.1
		c0,0.3-0.1,0.6-0.3,0.8c-0.2,0.2-0.5,0.3-0.8,0.3c-0.3,0-0.6-0.1-0.8-0.3c-0.2-0.2-0.3-0.5-0.3-0.8V86.3c0-0.3,0.1-0.6,0.4-0.9
		c0.3-0.2,0.6-0.4,0.9-0.4H306z M303.2,87.1v4.4h2.8c0.8,0,1.3-0.2,1.7-0.6c0.4-0.4,0.6-0.9,0.6-1.6c0-0.7-0.2-1.2-0.6-1.6
		c-0.4-0.4-1-0.6-1.7-0.6H303.2z"/>
</g>
<g>
	<path style="fill:#5A535B;" d="M317.5,84.8c0.2,0,0.5,0.1,0.7,0.2c0.2,0.1,0.4,0.3,0.4,0.6l4.4,12.6c0.1,0.2,0.1,0.3,0.1,0.4
		c0,0.3-0.1,0.5-0.3,0.7c-0.2,0.2-0.5,0.3-0.8,0.3c-0.2,0-0.4-0.1-0.6-0.2c-0.2-0.1-0.3-0.3-0.4-0.5l-0.9-2.9h-5.1l-0.9,2.9
		c-0.1,0.2-0.2,0.4-0.4,0.5c-0.2,0.1-0.4,0.2-0.6,0.2c-0.3,0-0.6-0.1-0.8-0.3c-0.2-0.2-0.3-0.4-0.3-0.7c0-0.1,0-0.3,0.1-0.4
		l4.4-12.6c0.1-0.2,0.2-0.4,0.5-0.6C317,84.9,317.2,84.8,317.5,84.8z M315.5,94.1h3.9l-1.9-5.9L315.5,94.1z"/>
</g>
<g>
	<path style="fill:#5A535B;" d="M329.9,92.3c0.3,0,0.5,0.1,0.7,0.3s0.3,0.4,0.3,0.7c0,0.3-0.1,0.5-0.3,0.7c-0.2,0.2-0.4,0.3-0.7,0.3
		h-4.7c-0.3,0-0.5-0.1-0.7-0.3c-0.2-0.2-0.3-0.4-0.3-0.7c0-0.3,0.1-0.5,0.3-0.7c0.2-0.2,0.4-0.3,0.7-0.3H329.9z"/>
</g>
<g>
	<path style="fill:#5A535B;" d="M338.8,84.8c0.6,0,1.2,0.1,1.7,0.2c0.5,0.1,1,0.3,1.4,0.6c0.5,0.3,0.7,0.6,0.7,1
		c0,0.2-0.1,0.5-0.3,0.7c-0.2,0.2-0.4,0.3-0.7,0.3c-0.1,0-0.2,0-0.3-0.1c-0.1,0-0.2-0.1-0.3-0.2c-0.4-0.2-0.7-0.4-1.1-0.4
		c-0.3-0.1-0.7-0.1-1.1-0.1c-0.9,0-1.7,0.3-2.2,0.8c-0.5,0.5-0.8,1.2-0.8,2.2v4.9c0,0.9,0.3,1.6,0.8,2.2c0.5,0.5,1.3,0.8,2.2,0.8
		c0.7,0,1.4-0.2,2-0.5c0.2-0.1,0.3-0.2,0.5-0.2c0.1,0,0.2-0.1,0.3-0.1c0.3,0,0.5,0.1,0.7,0.3c0.2,0.2,0.3,0.4,0.3,0.7
		c0,0.4-0.2,0.7-0.5,0.9c-0.5,0.3-1,0.6-1.6,0.7c-0.6,0.1-1.2,0.2-1.7,0.2c-0.8,0-1.5-0.1-2.1-0.3c-0.6-0.2-1.2-0.6-1.6-1
		c-0.5-0.4-0.8-1-1.1-1.6c-0.3-0.6-0.4-1.3-0.4-2.2v-4.6c0-0.8,0.1-1.5,0.4-2.2c0.3-0.6,0.6-1.2,1.1-1.6c0.5-0.4,1-0.8,1.6-1
		C337.3,85,338,84.8,338.8,84.8z"/>
</g>
<g>
	<path style="fill:#5A535B;" d="M353.3,84.8c0.3,0,0.5,0.1,0.7,0.3c0.2,0.2,0.3,0.4,0.3,0.8v12.7c0,0.3-0.1,0.6-0.3,0.8
		c-0.2,0.2-0.5,0.3-0.7,0.3c-0.3,0-0.6-0.1-0.8-0.3c-0.2-0.2-0.3-0.5-0.3-0.8V93h-5.4v5.6c0,0.3-0.1,0.6-0.3,0.8
		c-0.2,0.2-0.5,0.3-0.7,0.3c-0.3,0-0.6-0.1-0.8-0.3c-0.2-0.2-0.3-0.5-0.3-0.8V85.9c0-0.3,0.1-0.6,0.3-0.8c0.2-0.2,0.5-0.3,0.8-0.3
		c0.3,0,0.5,0.1,0.7,0.3c0.2,0.2,0.3,0.4,0.3,0.8v5h5.4v-5c0-0.3,0.1-0.6,0.3-0.8C352.8,84.9,353,84.8,353.3,84.8z"/>
</g>
<g>
	<path style="fill:#5A535B;" d="M361.5,84.8c0.2,0,0.5,0.1,0.7,0.2c0.2,0.1,0.4,0.3,0.4,0.6l4.4,12.6c0.1,0.2,0.1,0.3,0.1,0.4
		c0,0.3-0.1,0.5-0.3,0.7c-0.2,0.2-0.5,0.3-0.8,0.3c-0.2,0-0.4-0.1-0.6-0.2c-0.2-0.1-0.3-0.3-0.4-0.5l-0.9-2.9h-5.1l-0.9,2.9
		c-0.1,0.2-0.2,0.4-0.4,0.5c-0.2,0.1-0.4,0.2-0.6,0.2c-0.3,0-0.6-0.1-0.8-0.3c-0.2-0.2-0.3-0.4-0.3-0.7c0-0.1,0-0.3,0.1-0.4
		l4.4-12.6c0.1-0.2,0.2-0.4,0.5-0.6C361,84.9,361.2,84.8,361.5,84.8z M359.5,94.1h3.9l-1.9-5.9L359.5,94.1z"/>
</g>
<g>
	<path style="fill:#5A535B;" d="M372.9,85c1.4,0,2.4,0.3,3.2,1c0.8,0.7,1.1,1.7,1.1,2.9c0,0.7-0.1,1.2-0.4,1.7
		c-0.3,0.5-0.7,0.9-1.2,1.2c0.7,0.3,1.2,0.8,1.5,1.4c0.3,0.6,0.5,1.3,0.5,2c0,1.3-0.4,2.3-1.2,3.1c-0.8,0.7-1.9,1.1-3.4,1.1h-3.3
		c-0.4,0-0.7-0.1-0.9-0.4c-0.3-0.2-0.4-0.5-0.4-0.9V86.3c0-0.4,0.1-0.7,0.4-0.9c0.3-0.2,0.6-0.4,0.9-0.4H372.9z M370.6,87.1V91h2.2
		c0.7,0,1.2-0.2,1.6-0.5c0.4-0.3,0.6-0.8,0.6-1.4s-0.2-1.1-0.6-1.4c-0.4-0.3-0.9-0.5-1.5-0.5H370.6z M370.6,93v4.4h2.5
		c0.7,0,1.3-0.2,1.8-0.6c0.4-0.4,0.7-0.9,0.7-1.6s-0.2-1.2-0.7-1.6c-0.5-0.4-1.1-0.6-1.8-0.6H370.6z"/>
</g>
<g>
	<path style="fill:#5A535B;" d="M380.7,84.8c0.3,0,0.5,0.1,0.7,0.3c0.2,0.2,0.3,0.5,0.3,0.8v11.4h5.4c0.3,0,0.6,0.1,0.7,0.3
		c0.2,0.2,0.3,0.4,0.3,0.7c0,0.3-0.1,0.6-0.3,0.7c-0.2,0.2-0.4,0.3-0.7,0.3h-6.2c-0.4,0-0.7-0.1-0.9-0.4c-0.3-0.2-0.4-0.5-0.4-0.9
		V85.9c0-0.3,0.1-0.6,0.3-0.8C380.1,84.9,380.4,84.8,380.7,84.8z"/>
</g>
<g>
	<path style="fill:#5A535B;" d="M394.5,84.8c0.2,0,0.5,0.1,0.7,0.2c0.2,0.1,0.4,0.3,0.4,0.6l4.4,12.6c0.1,0.2,0.1,0.3,0.1,0.4
		c0,0.3-0.1,0.5-0.3,0.7c-0.2,0.2-0.5,0.3-0.8,0.3c-0.2,0-0.4-0.1-0.6-0.2c-0.2-0.1-0.3-0.3-0.4-0.5l-0.9-2.9h-5.1l-0.9,2.9
		c-0.1,0.2-0.2,0.4-0.4,0.5c-0.2,0.1-0.4,0.2-0.6,0.2c-0.3,0-0.6-0.1-0.8-0.3c-0.2-0.2-0.3-0.4-0.3-0.7c0-0.1,0-0.3,0.1-0.4
		l4.4-12.6c0.1-0.2,0.2-0.4,0.5-0.6C394,84.9,394.3,84.8,394.5,84.8z M392.6,94.1h3.9l-1.9-5.9L392.6,94.1z"/>
</g>
<g>
	<path style="fill:#5A535B;" d="M402.8,84.8c0.3,0,0.5,0.1,0.7,0.3c0.2,0.2,0.3,0.4,0.3,0.8v12.7c0,0.3-0.1,0.6-0.3,0.8
		c-0.2,0.2-0.5,0.3-0.7,0.3c-0.3,0-0.6-0.1-0.8-0.3c-0.2-0.2-0.3-0.5-0.3-0.8V85.9c0-0.3,0.1-0.6,0.3-0.8
		C402.2,84.9,402.5,84.8,402.8,84.8z"/>
</g>
<g>
	<path style="fill:#5A535B;" d="M410.8,84.8c0.7,0,1.4,0.1,1.9,0.2c0.6,0.1,1.1,0.3,1.6,0.6c0.4,0.2,0.6,0.5,0.6,1
		c0,0.3-0.1,0.5-0.3,0.7c-0.2,0.2-0.4,0.3-0.7,0.3c-0.2,0-0.3,0-0.4-0.1c-0.1,0-0.3-0.1-0.5-0.2c-0.4-0.2-0.8-0.3-1.2-0.4
		c-0.4-0.1-0.8-0.1-1.3-0.1c-0.3,0-0.6,0-0.8,0.1c-0.3,0.1-0.5,0.2-0.7,0.3c-0.2,0.1-0.4,0.3-0.5,0.5c-0.1,0.2-0.2,0.5-0.2,0.7
		c0,0.5,0.1,0.9,0.4,1.2c0.3,0.3,0.7,0.6,1.3,0.8l2.4,1.1c0.3,0.2,0.7,0.3,1,0.6c0.3,0.2,0.6,0.5,0.9,0.8c0.3,0.3,0.5,0.7,0.7,1.1
		c0.2,0.4,0.3,0.9,0.3,1.5c0,0.6-0.1,1.2-0.4,1.7c-0.2,0.5-0.6,0.9-1,1.3s-0.9,0.6-1.5,0.8c-0.6,0.2-1.2,0.3-1.9,0.3
		c-0.7,0-1.4-0.1-2-0.2c-0.6-0.1-1.2-0.3-1.8-0.6c-0.4-0.2-0.7-0.5-0.7-1c0-0.3,0.1-0.6,0.3-0.7s0.4-0.3,0.7-0.3
		c0.2,0,0.3,0,0.4,0.1c0.1,0,0.3,0.1,0.5,0.2c0.4,0.2,0.7,0.3,1.1,0.4c0.4,0.1,0.9,0.2,1.4,0.2c0.7,0,1.3-0.2,1.8-0.5
		c0.5-0.3,0.7-0.8,0.7-1.5c0-0.6-0.2-1-0.5-1.3c-0.3-0.3-0.8-0.6-1.4-0.9l-2.5-1.2c-0.4-0.2-0.7-0.4-1-0.6c-0.3-0.2-0.6-0.5-0.8-0.8
		c-0.2-0.3-0.4-0.6-0.6-1c-0.1-0.4-0.2-0.8-0.2-1.3c0-0.6,0.1-1.1,0.3-1.6c0.2-0.5,0.5-0.9,0.9-1.2s0.9-0.6,1.4-0.8
		C409.5,84.9,410.1,84.8,410.8,84.8z"/>
</g>
<g>
	<path style="fill:#00B4EC;" d="M188.1,105c0.1-0.3,0.3-0.5,0.7-0.5c0.2,0,0.4,0.1,0.5,0.2s0.2,0.3,0.2,0.5c0,0.1,0,0.1,0,0.2
		c0,0.1,0,0.1-0.1,0.2l-4.1,12.9c-0.2,0.5-0.5,0.8-0.9,0.8c-0.5,0-0.8-0.3-0.9-0.8l-4.1-12.9c0-0.1,0-0.1-0.1-0.2c0-0.1,0-0.1,0-0.2
		c0-0.2,0.1-0.3,0.2-0.5s0.3-0.2,0.5-0.2c0.4,0,0.6,0.2,0.7,0.5l3.7,12L188.1,105z"/>
</g>
<g>
	<path style="fill:#00B4EC;" d="M194.1,104.4c0.2,0,0.3,0,0.5,0.1c0.1,0.1,0.2,0.2,0.3,0.4l4.5,13.3c0,0.1,0.1,0.2,0.1,0.3
		c0,0.2-0.1,0.4-0.2,0.5c-0.1,0.1-0.3,0.2-0.5,0.2c-0.2,0-0.3,0-0.4-0.1c-0.1-0.1-0.2-0.2-0.3-0.3l-1.1-3.5h-5.6l-1.1,3.5
		c-0.1,0.2-0.1,0.3-0.3,0.3c-0.1,0.1-0.3,0.1-0.4,0.1c-0.2,0-0.4-0.1-0.5-0.2c-0.1-0.1-0.2-0.3-0.2-0.5c0-0.1,0-0.2,0.1-0.3
		l4.5-13.3c0.1-0.2,0.2-0.3,0.3-0.4C193.8,104.5,194,104.4,194.1,104.4z M191.8,113.9h4.7l-2.4-7.3L191.8,113.9z"/>
</g>
<g>
	<path style="fill:#00B4EC;" d="M209.7,104.4c0.2,0,0.4,0.1,0.5,0.2c0.1,0.1,0.2,0.3,0.2,0.5v9.3c0,1.5-0.4,2.7-1.2,3.5
		c-0.8,0.8-2,1.3-3.5,1.3c-1.6,0-2.8-0.4-3.6-1.3c-0.8-0.8-1.2-2-1.2-3.5v-9.3c0-0.2,0.1-0.4,0.2-0.5c0.1-0.1,0.3-0.2,0.5-0.2
		c0.2,0,0.4,0.1,0.5,0.2c0.1,0.1,0.2,0.3,0.2,0.5v9.4c0,1,0.3,1.9,0.9,2.5c0.6,0.6,1.4,0.9,2.5,0.9c1.1,0,1.9-0.3,2.5-0.9
		c0.6-0.6,0.9-1.4,0.9-2.5v-9.4c0-0.2,0.1-0.4,0.2-0.5C209.3,104.5,209.5,104.4,209.7,104.4z"/>
</g>
<g>
	<path style="fill:#00B4EC;" d="M217.2,104.6c0.8,0,1.6,0.1,2.2,0.3c0.7,0.2,1.2,0.6,1.7,1s0.8,1,1.1,1.6c0.3,0.7,0.4,1.4,0.4,2.2
		v3.9c0,1.7-0.5,3-1.4,3.9c-1,0.9-2.3,1.4-3.9,1.4h-2.8c-0.2,0-0.5-0.1-0.6-0.2c-0.2-0.2-0.3-0.4-0.3-0.6v-12.6
		c0-0.3,0.1-0.5,0.3-0.6c0.2-0.2,0.4-0.2,0.6-0.2H217.2z M214.9,106v11.7h2.4c1.2,0,2.1-0.3,2.8-1c0.7-0.7,1-1.6,1-2.8v-4
		c0-1.2-0.3-2.2-1-2.9c-0.7-0.7-1.6-1-2.8-1H214.9z"/>
</g>
<g>
	<path style="fill:#00B4EC;" d="M230.6,112.3c0.2,0,0.3,0.1,0.5,0.2c0.1,0.1,0.2,0.3,0.2,0.5s-0.1,0.4-0.2,0.5
		c-0.1,0.1-0.3,0.2-0.5,0.2h-4.7c-0.2,0-0.3-0.1-0.5-0.2c-0.1-0.1-0.2-0.3-0.2-0.5s0.1-0.3,0.2-0.5c0.1-0.1,0.3-0.2,0.5-0.2H230.6z"
		/>
</g>
<g>
	<path style="fill:#00B4EC;" d="M241.2,105c0.1-0.3,0.3-0.5,0.7-0.5c0.2,0,0.4,0.1,0.5,0.2s0.2,0.3,0.2,0.5c0,0.1,0,0.1,0,0.2
		c0,0.1,0,0.1-0.1,0.2l-4.1,12.9c-0.2,0.5-0.5,0.8-0.9,0.8c-0.5,0-0.8-0.3-0.9-0.8l-4.1-12.9c0-0.1,0-0.1-0.1-0.2c0-0.1,0-0.1,0-0.2
		c0-0.2,0.1-0.3,0.2-0.5c0.1-0.1,0.3-0.2,0.5-0.2c0.4,0,0.6,0.2,0.7,0.5l3.7,12L241.2,105z"/>
</g>
<g>
	<path style="fill:#00B4EC;" d="M247.2,104.4c0.2,0,0.3,0,0.5,0.1c0.1,0.1,0.2,0.2,0.3,0.4l4.5,13.3c0,0.1,0.1,0.2,0.1,0.3
		c0,0.2-0.1,0.4-0.2,0.5c-0.1,0.1-0.3,0.2-0.5,0.2c-0.2,0-0.3,0-0.4-0.1c-0.1-0.1-0.2-0.2-0.3-0.3l-1.1-3.5h-5.6l-1.1,3.5
		c-0.1,0.2-0.1,0.3-0.3,0.3s-0.3,0.1-0.4,0.1c-0.2,0-0.4-0.1-0.5-0.2c-0.1-0.1-0.2-0.3-0.2-0.5c0-0.1,0-0.2,0.1-0.3l4.5-13.3
		c0.1-0.2,0.2-0.3,0.3-0.4C246.8,104.5,247,104.4,247.2,104.4z M244.8,113.9h4.7l-2.4-7.3L244.8,113.9z"/>
</g>
<g>
	<path style="fill:#00B4EC;" d="M255.2,104.4c0.2,0,0.4,0.1,0.5,0.2c0.1,0.1,0.2,0.3,0.2,0.5v12.5h5.7c0.2,0,0.4,0.1,0.5,0.2
		c0.1,0.1,0.2,0.3,0.2,0.5c0,0.2-0.1,0.4-0.2,0.5c-0.1,0.1-0.3,0.2-0.5,0.2h-6.3c-0.2,0-0.5-0.1-0.6-0.3c-0.2-0.2-0.3-0.4-0.3-0.6
		v-13c0-0.2,0.1-0.4,0.2-0.5C254.8,104.5,255,104.4,255.2,104.4z"/>
</g>
<g>
	<path style="fill:#00B4EC;" d="M268.6,104.4c0.2,0,0.3,0,0.5,0.1c0.1,0.1,0.2,0.2,0.3,0.4l4.5,13.3c0,0.1,0.1,0.2,0.1,0.3
		c0,0.2-0.1,0.4-0.2,0.5c-0.1,0.1-0.3,0.2-0.5,0.2c-0.2,0-0.3,0-0.4-0.1c-0.1-0.1-0.2-0.2-0.3-0.3l-1.1-3.5h-5.6l-1.1,3.5
		c-0.1,0.2-0.1,0.3-0.3,0.3c-0.1,0.1-0.3,0.1-0.4,0.1c-0.2,0-0.4-0.1-0.5-0.2c-0.1-0.1-0.2-0.3-0.2-0.5c0-0.1,0-0.2,0.1-0.3
		l4.5-13.3c0.1-0.2,0.2-0.3,0.3-0.4C268.2,104.5,268.4,104.4,268.6,104.4z M266.2,113.9h4.7l-2.4-7.3L266.2,113.9z"/>
	<path style="fill:#00B4EC;" d="M276.8,104.4c0.2,0,0.4,0.1,0.5,0.2c0.1,0.1,0.2,0.3,0.2,0.5v13.4c0,0.2-0.1,0.4-0.2,0.5
		c-0.1,0.1-0.3,0.2-0.5,0.2c-0.2,0-0.4-0.1-0.5-0.2c-0.1-0.1-0.2-0.3-0.2-0.5v-13.4c0-0.2,0.1-0.4,0.2-0.5S276.6,104.4,276.8,104.4z
		"/>
	<path style="fill:#00B4EC;" d="M284.5,104.4c0.7,0,1.3,0.1,1.9,0.2c0.6,0.1,1.1,0.3,1.6,0.5c0.3,0.1,0.4,0.4,0.4,0.7
		c0,0.2-0.1,0.3-0.2,0.5c-0.1,0.1-0.3,0.2-0.4,0.2c-0.1,0-0.2,0-0.3-0.1c-0.1,0-0.2-0.1-0.3-0.1c-0.5-0.2-0.9-0.3-1.3-0.4
		c-0.4-0.1-0.9-0.1-1.4-0.1c-0.4,0-0.7,0.1-1.1,0.2c-0.3,0.1-0.6,0.3-0.9,0.5c-0.2,0.2-0.4,0.4-0.6,0.7c-0.1,0.3-0.2,0.6-0.2,0.9
		c0,0.6,0.2,1.1,0.5,1.4c0.3,0.3,0.8,0.7,1.4,1l2.4,1.2c0.3,0.2,0.7,0.4,1,0.6c0.3,0.2,0.6,0.5,0.9,0.8c0.3,0.3,0.5,0.7,0.6,1.1
		c0.2,0.4,0.2,0.9,0.2,1.5c0,0.6-0.1,1.1-0.3,1.6c-0.2,0.5-0.5,0.9-0.9,1.2c-0.4,0.3-0.9,0.6-1.4,0.7c-0.5,0.2-1.1,0.3-1.7,0.3
		c-0.7,0-1.3-0.1-1.9-0.2c-0.6-0.1-1.2-0.3-1.7-0.6c-0.3-0.1-0.5-0.4-0.5-0.7c0-0.2,0.1-0.4,0.2-0.5c0.1-0.1,0.3-0.2,0.5-0.2
		c0.1,0,0.2,0,0.3,0c0.1,0,0.2,0.1,0.3,0.1c0.4,0.2,0.9,0.4,1.3,0.5c0.4,0.1,0.9,0.1,1.5,0.1c0.4,0,0.8-0.1,1.1-0.2
		c0.4-0.1,0.7-0.3,0.9-0.5c0.3-0.2,0.5-0.5,0.6-0.8c0.2-0.3,0.2-0.6,0.2-1c0-0.4-0.1-0.7-0.2-0.9c-0.1-0.3-0.2-0.5-0.4-0.7
		c-0.2-0.2-0.4-0.4-0.7-0.6c-0.3-0.2-0.6-0.3-0.9-0.5l-2.4-1.2c-0.7-0.4-1.3-0.8-1.8-1.4c-0.5-0.5-0.7-1.3-0.7-2.2
		c0-0.5,0.1-1,0.3-1.4c0.2-0.4,0.5-0.8,0.9-1.1c0.4-0.3,0.8-0.6,1.3-0.7C283.3,104.5,283.8,104.4,284.5,104.4z"/>
</g>
<g>
	<polygon id="XMLID_4_" style="fill:#AEBD15;" points="120,60.1 150.7,29.3 120,18.4 78.5,60.1 	"/>
	<polygon id="XMLID_3_" style="fill:#F07E31;" points="178.7,1.4 150.7,29.3 236.9,60 	"/>
	<polygon id="XMLID_2_" style="fill:#00B4EC;" points="3.2,60.1 132.9,105.3 178.6,60 	"/>
	<polygon id="XMLID_1_" style="fill:#5A535B;" points="236.9,60 150.7,29.3 120,60 	"/>
</g>
</svg>
