<svg xmlns="http://www.w3.org/2000/svg" viewBox="0 0 420 120"><path d="M187.8 84.8c.3 0 .5.1.7.3.2.2.3.4.3.8v12.7c0 .3-.1.6-.3.8-.2.2-.5.3-.7.3-.3 0-.6-.1-.8-.3-.2-.2-.3-.5-.3-.8V93h-5.4v5.6c0 .3-.1.6-.3.8-.2.2-.5.3-.7.3-.3 0-.6-.1-.8-.3-.2-.2-.3-.5-.3-.8V85.9c0-.3.1-.6.3-.8.2-.2.5-.3.8-.3.3 0 .5.1.7.3.2.2.3.4.3.8v5h5.4v-5c0-.3.1-.6.3-.8.2-.2.5-.3.8-.3zm8.8 0c.8 0 1.4.1 2.1.3.6.2 1.2.6 1.6 1s.8 1 1 1.6c.2.6.4 1.3.4 2.1v4.8c0 .8-.1 1.5-.4 2.1-.2.6-.6 1.1-1 1.6s-1 .8-1.6 1c-.6.2-1.3.3-2.1.3s-1.5-.1-2.1-.3c-.6-.2-1.2-.6-1.6-1s-.8-1-1-1.6c-.2-.6-.4-1.3-.4-2.1v-4.8c0-.8.1-1.5.4-2.1.2-.6.6-1.1 1-1.6s1-.8 1.6-1c.7-.1 1.4-.3 2.1-.3zm0-4.3c.2 0 .3 0 .5.1l1.9 1c.4.2.6.5.6.9 0 .3-.1.5-.3.7-.2.2-.4.3-.7.3h-.2c-.1 0-.1 0-.2-.1l-1.6-.9-1.6.9c-.2.1-.3.1-.4.1-.3 0-.5-.1-.7-.3-.2-.2-.3-.4-.3-.7 0-.4.2-.7.5-.9l1.9-1c.3 0 .4-.1.6-.1zm0 6.4c-.9 0-1.6.3-2.1.7-.5.5-.8 1.2-.8 2.1v5.1c0 .9.3 1.6.8 2.1s1.2.7 2.1.7c.9 0 1.6-.2 2.1-.7.5-.5.8-1.2.8-2.1v-5.1c0-.9-.3-1.6-.8-2.1s-1.2-.7-2.1-.7zm12.1-1.9c.8 0 1.4.1 2 .3.6.2 1.1.5 1.4.9.4.4.7.9.9 1.4.2.5.3 1.1.3 1.7 0 1.3-.4 2.4-1.1 3.1-.7.8-1.8 1.1-3.3 1.1h-2.6v4.9c0 .3-.1.6-.3.8-.2.2-.5.3-.8.3-.3 0-.6-.1-.8-.3-.2-.2-.3-.5-.3-.8V86.3c0-.3.1-.6.4-.9.3-.2.6-.4.9-.4h3.3zm-2.4 2.1v4.6h2.4c.8 0 1.4-.2 1.8-.6.4-.4.6-1 .6-1.7 0-.8-.2-1.3-.7-1.7-.5-.4-1.1-.6-1.8-.6h-2.3zm10.2-2.3c.3 0 .5.1.7.3.2.2.3.4.3.8v12.7c0 .3-.1.6-.3.8-.2.2-.5.3-.7.3-.3 0-.6-.1-.8-.3-.2-.2-.3-.5-.3-.8V85.9c0-.3.1-.6.3-.8.2-.2.5-.3.8-.3zm12 .2c.3 0 .5.1.7.3.2.2.3.4.3.7 0 .3-.1.5-.3.7-.2.2-.4.3-.7.3h-3.1v11.4c0 .3-.1.6-.3.8-.2.2-.5.3-.8.3-.3 0-.6-.1-.8-.3-.2-.2-.3-.5-.3-.8V87.1h-3.1c-.3 0-.6-.1-.7-.3-.2-.2-.3-.5-.3-.7 0-.3.1-.5.3-.7.2-.2.4-.3.7-.3h8.4zm5.4-.2c.2 0 .5.1.7.2.2.1.4.3.4.6l4.4 12.6c.1.2.1.3.1.4 0 .3-.1.5-.3.7-.2.2-.5.3-.8.3-.2 0-.4-.1-.6-.2-.2-.1-.3-.3-.4-.5l-.9-2.9h-5.1l-.9 2.9c-.1.2-.2.4-.4.5-.2.1-.4.2-.6.2-.3 0-.6-.1-.8-.3-.2-.2-.3-.4-.3-.7 0-.1 0-.3.1-.4l4.4-12.6c.1-.2.2-.4.5-.6.1-.1.3-.2.5-.2zm-1.9 9.3h3.9l-1.9-5.9-2 5.9zm10.4-9.3c.3 0 .5.1.7.3.2.2.3.5.3.8v11.4h5.4c.3 0 .6.1.7.3.2.2.3.4.3.7 0 .3-.1.6-.3.7-.2.2-.4.3-.7.3h-6.2c-.4 0-.7-.1-.9-.4-.3-.2-.4-.5-.4-.9V85.9c0-.3.1-.6.3-.8.2-.2.5-.3.8-.3zm19.6.2c.7 0 1.3.1 1.9.3.6.2 1 .5 1.4.9.4.4.7.8.9 1.3.2.5.3 1.1.3 1.7 0 1-.3 1.9-.8 2.5-.5.7-1.3 1.1-2.2 1.3l2.9 4.8c0 .1.1.2.1.3 0 .1.1.2.1.3 0 .3-.1.6-.3.8-.2.2-.5.3-.8.3-.2 0-.4 0-.5-.1-.2-.1-.3-.2-.4-.3l-3.5-5.8h-1.9v5.1c0 .3-.1.6-.3.8-.2.2-.5.3-.8.3-.3 0-.6-.1-.8-.3-.2-.2-.3-.5-.3-.8V86.3c0-.3.1-.6.4-.9.3-.2.6-.4.9-.4h3.7zm-2.8 2.1v4.4h2.8c.8 0 1.3-.2 1.7-.6.4-.4.6-.9.6-1.6 0-.7-.2-1.2-.6-1.6-.4-.4-1-.6-1.7-.6h-2.8zm10.9-2.3c.3 0 .5.1.7.3.2.2.3.4.3.8v12.7c0 .3-.1.6-.3.8-.2.2-.5.3-.7.3-.3 0-.6-.1-.8-.3-.2-.2-.3-.5-.3-.8V85.9c0-.3.1-.6.3-.8.2-.2.5-.3.8-.3zm12.4 0c.3 0 .5.1.7.3.2.2.3.4.3.7v.3c0 .1-.1.2-.1.3l-3.8 12c-.1.4-.3.7-.6.9-.2.2-.5.3-.9.3-.3 0-.6-.1-.9-.3-.2-.2-.4-.5-.6-.9l-3.8-12c0-.1-.1-.2-.1-.3v-.3c0-.3.1-.5.3-.7.2-.2.5-.3.7-.3.5 0 .9.3 1 .8l3.3 10.5 3.2-10.5c.4-.5.8-.8 1.3-.8zm4.1 0c.3 0 .5.1.7.3.2.2.3.4.3.8v12.7c0 .3-.1.6-.3.8-.2.2-.5.3-.7.3-.3 0-.6-.1-.8-.3-.2-.2-.3-.5-.3-.8V85.9c0-.3.1-.6.3-.8.3-.2.5-.3.8-.3zm11.4.2c.3 0 .6.1.7.3.2.2.3.4.3.7 0 .3-.1.6-.3.7-.2.2-.4.3-.7.3h-5.2v3.8h4.9c.3 0 .6.1.8.3.2.2.3.4.3.7 0 .3-.1.6-.3.7-.2.2-.4.3-.8.3h-4.9v4.4h5.4c.3 0 .6.1.7.3.2.2.3.4.3.7 0 .3-.1.6-.3.7-.2.2-.4.3-.7.3H292c-.4 0-.7-.1-.9-.4-.3-.2-.4-.5-.4-.9V86.3c0-.4.1-.7.4-.9.3-.2.6-.4.9-.4h6zm8 0c.7 0 1.3.1 1.9.3.6.2 1 .5 1.4.9.4.4.7.8.9 1.3.2.5.3 1.1.3 1.7 0 1-.3 1.9-.8 2.5-.5.7-1.3 1.1-2.2 1.3l2.9 4.8c0 .1.1.2.1.3 0 .1.1.2.1.3 0 .3-.1.6-.3.8-.2.2-.5.3-.8.3-.2 0-.4 0-.5-.1-.2-.1-.3-.2-.4-.3l-3.5-5.8h-1.9v5.1c0 .3-.1.6-.3.8-.2.2-.5.3-.8.3-.3 0-.6-.1-.8-.3-.2-.2-.3-.5-.3-.8V86.3c0-.3.1-.6.4-.9.3-.2.6-.4.9-.4h3.7zm-2.8 2.1v4.4h2.8c.8 0 1.3-.2 1.7-.6.4-.4.6-.9.6-1.6 0-.7-.2-1.2-.6-1.6-.4-.4-1-.6-1.7-.6h-2.8zm14.3-2.3c.2 0 .5.1.7.2.2.1.4.3.4.6l4.4 12.6c.1.2.1.3.1.4 0 .3-.1.5-.3.7-.2.2-.5.3-.8.3-.2 0-.4-.1-.6-.2-.2-.1-.3-.3-.4-.5l-.9-2.9H315l-.9 2.9c-.1.2-.2.4-.4.5-.2.1-.4.2-.6.2-.3 0-.6-.1-.8-.3-.2-.2-.3-.4-.3-.7 0-.1 0-.3.1-.4l4.4-12.6c.1-.2.2-.4.5-.6 0-.1.2-.2.5-.2zm-2 9.3h3.9l-1.9-5.9-2 5.9zm14.4-1.8c.3 0 .5.1.7.3s.3.4.3.7c0 .3-.1.5-.3.7-.2.2-.4.3-.7.3h-4.7c-.3 0-.5-.1-.7-.3-.2-.2-.3-.4-.3-.7 0-.3.1-.5.3-.7.2-.2.4-.3.7-.3h4.7zm8.9-7.5c.6 0 1.2.1 1.7.2s1 .3 1.4.6c.5.3.7.6.7 1 0 .2-.1.5-.3.7-.2.2-.4.3-.7.3-.1 0-.2 0-.3-.1-.1 0-.2-.1-.3-.2-.4-.2-.7-.4-1.1-.4-.3-.1-.7-.1-1.1-.1-.9 0-1.7.3-2.2.8-.5.5-.8 1.2-.8 2.2v4.9c0 .9.3 1.6.8 2.2.5.5 1.3.8 2.2.8.7 0 1.4-.2 2-.5.2-.1.3-.2.5-.2.1 0 .2-.1.3-.1.3 0 .5.1.7.3.2.2.3.4.3.7 0 .4-.2.7-.5.9-.5.3-1 .6-1.6.7-.6.1-1.2.2-1.7.2-.8 0-1.5-.1-2.1-.3-.6-.2-1.2-.6-1.6-1-.5-.4-.8-1-1.1-1.6-.3-.6-.4-1.3-.4-2.2V90c0-.8.1-1.5.4-2.2.3-.6.6-1.2 1.1-1.6.5-.4 1-.8 1.6-1 .6-.2 1.3-.4 2.1-.4zm14.5 0c.3 0 .5.1.7.3.2.2.3.4.3.8v12.7c0 .3-.1.6-.3.8-.2.2-.5.3-.7.3-.3 0-.6-.1-.8-.3-.2-.2-.3-.5-.3-.8V93h-5.4v5.6c0 .3-.1.6-.3.8-.2.2-.5.3-.7.3-.3 0-.6-.1-.8-.3-.2-.2-.3-.5-.3-.8V85.9c0-.3.1-.6.3-.8.2-.2.5-.3.8-.3.3 0 .5.1.7.3.2.2.3.4.3.8v5h5.4v-5c0-.3.1-.6.3-.8.3-.2.5-.3.8-.3zm8.2 0c.2 0 .5.1.7.2.2.1.4.3.4.6l4.4 12.6c.1.2.1.3.1.4 0 .3-.1.5-.3.7-.2.2-.5.3-.8.3-.2 0-.4-.1-.6-.2-.2-.1-.3-.3-.4-.5l-.9-2.9H359l-.9 2.9c-.1.2-.2.4-.4.5-.2.1-.4.2-.6.2-.3 0-.6-.1-.8-.3-.2-.2-.3-.4-.3-.7 0-.1 0-.3.1-.4l4.4-12.6c.1-.2.2-.4.5-.6 0-.1.2-.2.5-.2zm-2 9.3h3.9l-1.9-5.9-2 5.9zm13.4-9.1c1.4 0 2.4.3 3.2 1 .8.7 1.1 1.7 1.1 2.9 0 .7-.1 1.2-.4 1.7-.3.5-.7.9-1.2 1.2.7.3 1.2.8 1.5 1.4.3.6.5 1.3.5 2 0 1.3-.4 2.3-1.2 3.1-.8.7-1.9 1.1-3.4 1.1h-3.3c-.4 0-.7-.1-.9-.4-.3-.2-.4-.5-.4-.9V86.3c0-.4.1-.7.4-.9.3-.2.6-.4.9-.4h3.2zm-2.3 2.1V91h2.2c.7 0 1.2-.2 1.6-.5.4-.3.6-.8.6-1.4s-.2-1.1-.6-1.4c-.4-.3-.9-.5-1.5-.5h-2.3zm0 5.9v4.4h2.5c.7 0 1.3-.2 1.8-.6.4-.4.7-.9.7-1.6s-.2-1.2-.7-1.6c-.5-.4-1.1-.6-1.8-.6h-2.5zm10.1-8.2c.3 0 .5.1.7.3.2.2.3.5.3.8v11.4h5.4c.3 0 .6.1.7.3.2.2.3.4.3.7 0 .3-.1.6-.3.7-.2.2-.4.3-.7.3h-6.2c-.4 0-.7-.1-.9-.4-.3-.2-.4-.5-.4-.9V85.9c0-.3.1-.6.3-.8.2-.2.5-.3.8-.3zm13.8 0c.2 0 .5.1.7.2.2.1.4.3.4.6l4.4 12.6c.1.2.1.3.1.4 0 .3-.1.5-.3.7-.2.2-.5.3-.8.3-.2 0-.4-.1-.6-.2-.2-.1-.3-.3-.4-.5l-.9-2.9H392l-.9 2.9c-.1.2-.2.4-.4.5-.2.1-.4.2-.6.2-.3 0-.6-.1-.8-.3-.2-.2-.3-.4-.3-.7 0-.1 0-.3.1-.4l4.4-12.6c.1-.2.2-.4.5-.6 0-.1.3-.2.5-.2zm-1.9 9.3h3.9l-1.9-5.9-2 5.9zm10.2-9.3c.3 0 .5.1.7.3.2.2.3.4.3.8v12.7c0 .3-.1.6-.3.8-.2.2-.5.3-.7.3-.3 0-.6-.1-.8-.3-.2-.2-.3-.5-.3-.8V85.9c0-.3.1-.6.3-.8.2-.2.5-.3.8-.3zm8 0c.7 0 1.4.1 1.9.2.6.1 1.1.3 1.6.6.4.2.6.5.6 1 0 .3-.1.5-.3.7-.2.2-.4.3-.7.3-.2 0-.3 0-.4-.1-.1 0-.3-.1-.5-.2-.4-.2-.8-.3-1.2-.4-.4-.1-.8-.1-1.3-.1-.3 0-.6 0-.8.1-.3.1-.5.2-.7.3-.2.1-.4.3-.5.5-.1.2-.2.5-.2.7 0 .5.1.9.4 1.2.3.3.7.6 1.3.8l2.4 1.1c.3.2.7.3 1 .6.3.2.6.5.9.8.3.3.5.7.7 1.1.2.4.3.9.3 1.5s-.1 1.2-.4 1.7c-.2.5-.6.9-1 1.3s-.9.6-1.5.8c-.6.2-1.2.3-1.9.3s-1.4-.1-2-.2c-.6-.1-1.2-.3-1.8-.6-.4-.2-.7-.5-.7-1 0-.3.1-.6.3-.7s.4-.3.7-.3c.2 0 .3 0 .4.1.1 0 .3.1.5.2.4.2.7.3 1.1.4.4.1.9.2 1.4.2.7 0 1.3-.2 1.8-.5s.7-.8.7-1.5c0-.6-.2-1-.5-1.3-.3-.3-.8-.6-1.4-.9l-2.5-1.2c-.4-.2-.7-.4-1-.6-.3-.2-.6-.5-.8-.8-.2-.3-.4-.6-.6-1-.1-.4-.2-.8-.2-1.3 0-.6.1-1.1.3-1.6.2-.5.5-.9.9-1.2s.9-.6 1.4-.8c1-.1 1.6-.2 2.3-.2z" fill="#5a535b"/><path d="M188.1 105c.1-.3.3-.5.7-.5.2 0 .4.1.5.2s.2.3.2.5v.2c0 .1 0 .1-.1.2l-4.1 12.9c-.2.5-.5.8-.9.8-.5 0-.8-.3-.9-.8l-4.1-12.9c0-.1 0-.1-.1-.2v-.2c0-.2.1-.3.2-.5s.3-.2.5-.2c.4 0 .6.2.7.5l3.7 12 3.7-12zm6-.6c.2 0 .3 0 .5.1.1.1.2.2.3.4l4.5 13.3c0 .1.1.2.1.3 0 .2-.1.4-.2.5-.1.1-.3.2-.5.2s-.3 0-.4-.1l-.3-.3-1.1-3.5h-5.6l-1.1 3.5c-.1.2-.1.3-.3.3-.1.1-.3.1-.4.1-.2 0-.4-.1-.5-.2-.1-.1-.2-.3-.2-.5 0-.1 0-.2.1-.3l4.5-13.3c.1-.2.2-.3.3-.4 0 0 .2-.1.3-.1zm-2.3 9.5h4.7l-2.4-7.3-2.3 7.3zm17.9-9.5c.2 0 .4.1.5.2.1.1.2.3.2.5v9.3c0 1.5-.4 2.7-1.2 3.5-.8.8-2 1.3-3.5 1.3-1.6 0-2.8-.4-3.6-1.3-.8-.8-1.2-2-1.2-3.5v-9.3c0-.2.1-.4.2-.5.1-.1.3-.2.5-.2s.4.1.5.2c.1.1.2.3.2.5v9.4c0 1 .3 1.9.9 2.5.6.6 1.4.9 2.5.9s1.9-.3 2.5-.9c.6-.6.9-1.4.9-2.5v-9.4c0-.2.1-.4.2-.5 0-.1.2-.2.4-.2zm7.5.2c.8 0 1.6.1 2.2.3.7.2 1.2.6 1.7 1s.8 1 1.1 1.6c.3.7.4 1.4.4 2.2v3.9c0 1.7-.5 3-1.4 3.9-1 .9-2.3 1.4-3.9 1.4h-2.8c-.2 0-.5-.1-.6-.2-.2-.2-.3-.4-.3-.6v-12.6c0-.3.1-.5.3-.6.2-.2.4-.2.6-.2h2.7zm-2.3 1.4v11.7h2.4c1.2 0 2.1-.3 2.8-1 .7-.7 1-1.6 1-2.8v-4c0-1.2-.3-2.2-1-2.9-.7-.7-1.6-1-2.8-1h-2.4zm15.7 6.3c.2 0 .3.1.5.2.1.1.2.3.2.5s-.1.4-.2.5c-.1.1-.3.2-.5.2h-4.7c-.2 0-.3-.1-.5-.2-.1-.1-.2-.3-.2-.5s.1-.3.2-.5c.1-.1.3-.2.5-.2h4.7zm10.6-7.3c.1-.3.3-.5.7-.5.2 0 .4.1.5.2s.2.3.2.5v.2c0 .1 0 .1-.1.2l-4.1 12.9c-.2.5-.5.8-.9.8-.5 0-.8-.3-.9-.8l-4.1-12.9c0-.1 0-.1-.1-.2v-.2c0-.2.1-.3.2-.5.1-.1.3-.2.5-.2.4 0 .6.2.7.5l3.7 12 3.7-12zm6-.6c.2 0 .3 0 .5.1.1.1.2.2.3.4l4.5 13.3c0 .1.1.2.1.3 0 .2-.1.4-.2.5-.1.1-.3.2-.5.2s-.3 0-.4-.1l-.3-.3-1.1-3.5h-5.6l-1.1 3.5c-.1.2-.1.3-.3.3s-.3.1-.4.1c-.2 0-.4-.1-.5-.2-.1-.1-.2-.3-.2-.5 0-.1 0-.2.1-.3l4.5-13.3c.1-.2.2-.3.3-.4-.1 0 .1-.1.3-.1zm-2.4 9.5h4.7l-2.4-7.3-2.3 7.3zm10.4-9.5c.2 0 .4.1.5.2.1.1.2.3.2.5v12.5h5.7c.2 0 .4.1.5.2.1.1.2.3.2.5s-.1.4-.2.5c-.1.1-.3.2-.5.2h-6.3c-.2 0-.5-.1-.6-.3-.2-.2-.3-.4-.3-.6v-13c0-.2.1-.4.2-.5.2-.1.4-.2.6-.2zm13.4 0c.2 0 .3 0 .5.1.1.1.2.2.3.4l4.5 13.3c0 .1.1.2.1.3 0 .2-.1.4-.2.5-.1.1-.3.2-.5.2s-.3 0-.4-.1l-.3-.3-1.1-3.5h-5.6l-1.1 3.5c-.1.2-.1.3-.3.3-.1.1-.3.1-.4.1-.2 0-.4-.1-.5-.2-.1-.1-.2-.3-.2-.5 0-.1 0-.2.1-.3l4.5-13.3c.1-.2.2-.3.3-.4-.1 0 .1-.1.3-.1zm-2.4 9.5h4.7l-2.4-7.3-2.3 7.3zm10.6-9.5c.2 0 .4.1.5.2.1.1.2.3.2.5v13.4c0 .2-.1.4-.2.5-.1.1-.3.2-.5.2s-.4-.1-.5-.2c-.1-.1-.2-.3-.2-.5v-13.4c0-.2.1-.4.2-.5s.3-.2.5-.2zm7.7 0c.7 0 1.3.1 1.9.2.6.1 1.1.3 1.6.5.3.1.4.4.4.7 0 .2-.1.3-.2.5-.1.1-.3.2-.4.2-.1 0-.2 0-.3-.1-.1 0-.2-.1-.3-.1-.5-.2-.9-.3-1.3-.4-.4-.1-.9-.1-1.4-.1-.4 0-.7.1-1.1.2-.3.1-.6.3-.9.5-.2.2-.4.4-.6.7-.1.3-.2.6-.2.9 0 .6.2 1.1.5 1.4.3.3.8.7 1.4 1l2.4 1.2c.3.2.7.4 1 .6.3.2.6.5.9.8.3.3.5.7.6 1.1.2.4.2.9.2 1.5s-.1 1.1-.3 1.6c-.2.5-.5.9-.9 1.2-.4.3-.9.6-1.4.7-.5.2-1.1.3-1.7.3-.7 0-1.3-.1-1.9-.2-.6-.1-1.2-.3-1.7-.6-.3-.1-.5-.4-.5-.7 0-.2.1-.4.2-.5.1-.1.3-.2.5-.2h.3c.1 0 .2.1.3.1.4.2.9.4 1.3.5.4.1.9.1 1.5.1.4 0 .8-.1 1.1-.2.4-.1.7-.3.9-.5.3-.2.5-.5.6-.8.2-.3.2-.6.2-1s-.1-.7-.2-.9c-.1-.3-.2-.5-.4-.7-.2-.2-.4-.4-.7-.6-.3-.2-.6-.3-.9-.5l-2.4-1.2c-.7-.4-1.3-.8-1.8-1.4-.5-.5-.7-1.3-.7-2.2 0-.5.1-1 .3-1.4.2-.4.5-.8.9-1.1.4-.3.8-.6 1.3-.7.7-.3 1.2-.4 1.9-.4z" fill="#00b4ec"/><path fill="#aebd15" d="M120 60.1l30.7-30.8L120 18.4 78.5 60.1z"/><path fill="#f07e31" d="M178.7 1.4l-28 27.9L236.9 60z"/><path fill="#00b4ec" d="M3.2 60.1l129.7 45.2L178.6 60z"/><path fill="#5a535b" d="M236.9 60l-86.2-30.7L120 60z"/></svg>