<?xml version="1.0" encoding="UTF-8" standalone="no"?>
<svg width="76px" height="76px" viewBox="0 0 76 76" version="1.1" xmlns="http://www.w3.org/2000/svg" xmlns:xlink="http://www.w3.org/1999/xlink">
    <!-- Generator: Sketch 3.7.2 (28276) - http://www.bohemiancoding.com/sketch -->
    <title>cross</title>
    <desc>Created with Sketch.</desc>
    <defs></defs>
    <g id="Page-1" stroke="none" stroke-width="1" fill="none" fill-rule="evenodd">
        <path d="M46.326,5.5455 L28.922,5.5455 L28.922,28.7515 L5.802,28.7515 L5.802,46.5825 L28.922,46.5825 L28.922,69.7875 L46.326,69.7875 L46.326,46.5825 L69.447,46.5825 L69.447,28.7515 L46.326,28.7515 L46.326,5.5455 Z M46.411,-0.0005 C49.568,-0.0005 52.128,2.5595 52.128,5.7165 L52.128,23.2055 L69.617,23.2055 C72.689,23.2055 75.248,25.7655 75.248,28.8365 L75.248,46.4965 C75.248,49.5685 72.689,52.1275 69.617,52.1275 L52.128,52.1275 L52.128,69.6175 C52.128,72.7745 49.568,75.3335 46.411,75.3335 L28.837,75.3335 C25.68,75.3335 23.12,72.7745 23.12,69.6175 L23.12,52.1275 L5.631,52.1275 C2.56,52.1275 0,49.5685 0,46.4965 L0,28.8365 C0,25.7655 2.56,23.2055 5.631,23.2055 L23.12,23.2055 L23.12,5.7165 C23.12,2.5595 25.68,-0.0005 28.837,-0.0005 L46.411,-0.0005 Z" id="cross" fill="#000000"></path>
    </g>
</svg>