<?xml version="1.0" encoding="UTF-8" standalone="no"?>
<svg width="76px" height="52px" viewBox="0 0 76 52" version="1.1" xmlns="http://www.w3.org/2000/svg" xmlns:xlink="http://www.w3.org/1999/xlink">
    <!-- Generator: Sketch 3.7.2 (28276) - http://www.bohemiancoding.com/sketch -->
    <title>envelope</title>
    <desc>Created with Sketch.</desc>
    <defs></defs>
    <g id="Page-1" stroke="none" stroke-width="1" fill="none" fill-rule="evenodd">
        <path d="M9.5553,5.5455 L37.8793,26.0215 L66.2903,5.5455 L9.5553,5.5455 Z M70.0433,46.2405 L70.0433,9.6405 L41.3773,30.4575 C40.3543,31.2255 39.1603,31.6525 37.8793,31.6525 C36.7703,31.6525 35.1493,30.9685 34.5523,30.5425 L5.8013,9.6405 L5.8013,46.2405 L70.0433,46.2405 Z M75.8453,4.0095 L75.8453,47.7765 C75.8453,49.9945 74.0543,51.7865 71.8343,51.7865 L4.0093,51.7865 C1.7913,51.7865 0.0003,49.9945 0.0003,47.7765 L0.0003,4.0095 C0.0003,1.7915 1.7913,-0.0005 4.0093,-0.0005 L71.8343,-0.0005 C74.0543,-0.0005 75.8453,1.7915 75.8453,4.0095 L75.8453,4.0095 Z" id="envelope" fill="#000000"></path>
    </g>
</svg>