<?xml version="1.0" encoding="UTF-8" standalone="no"?>
<svg width="53px" height="71px" viewBox="0 0 53 71" version="1.1" xmlns="http://www.w3.org/2000/svg" xmlns:xlink="http://www.w3.org/1999/xlink">
    <!-- Generator: Sketch 3.8.3 (29802) - http://www.bohemiancoding.com/sketch -->
    <title>file</title>
    <desc>Created with Sketch.</desc>
    <defs></defs>
    <g id="Page-1" stroke="none" stroke-width="1" fill="none" fill-rule="evenodd">
        <path d="M28.9221,23.2057 L44.0231,23.2057 L28.9221,8.1047 L28.9221,23.2057 Z M46.3261,28.7517 L27.1311,28.7517 C24.9121,28.7517 23.1201,26.9597 23.1201,24.7417 L23.1201,5.5457 L5.8021,5.5457 L5.8021,65.3507 L46.3261,65.3507 L46.3261,28.7517 Z M50.7631,21.7557 C51.6161,22.6087 52.1281,23.7177 52.1281,24.9977 L52.1281,66.8867 C52.1281,69.1057 50.3361,70.8967 48.1181,70.8967 L4.0101,70.8967 C1.7921,70.8967 0.0001,69.1057 0.0001,66.8867 L0.0001,4.0097 C0.0001,1.7917 1.7921,-0.0003 4.0101,-0.0003 L27.1311,-0.0003 C28.3251,-0.0003 29.5191,0.5117 30.3721,1.3647 L50.7631,21.7557 Z" id="file" fill="#000000"></path>
    </g>
</svg>