<?xml version="1.0" encoding="UTF-8" standalone="no"?>
<svg width="59px" height="89px" viewBox="0 0 59 89" version="1.1" xmlns="http://www.w3.org/2000/svg" xmlns:xlink="http://www.w3.org/1999/xlink">
    <!-- Generator: Sketch 3.7.2 (28276) - http://www.bohemiancoding.com/sketch -->
    <title>phone</title>
    <desc>Created with Sketch.</desc>
    <defs></defs>
    <g id="Page-1" stroke="none" stroke-width="1" fill="none" fill-rule="evenodd">
        <path d="M31.055,77.7219 C34.723,81.3909 38.307,83.0969 42.231,83.0969 C44.449,83.0969 46.838,82.4999 49.312,81.3909 L52.042,80.1109 C52.81,79.7699 53.237,79.0019 53.237,78.3189 C53.237,78.0639 53.151,77.7219 52.981,77.4659 L47.179,64.8399 C46.923,64.2419 46.326,63.7309 45.388,63.7309 C45.132,63.7309 44.791,63.8159 44.62,63.9009 L40.781,65.6929 C39.757,66.2049 38.648,66.4609 37.539,66.4609 C34.723,66.4609 31.738,64.7539 30.458,62.0239 L17.405,33.8709 C16.892,32.8459 16.637,31.7379 16.637,30.6279 C16.637,27.8979 18.343,24.9119 21.158,23.6319 L24.998,21.8409 C25.595,21.5849 26.107,20.9869 26.107,20.1349 C26.107,19.7929 26.107,19.5369 25.936,19.1959 L20.049,6.6539 C19.708,6.0569 19.281,5.4599 18.257,5.4599 C17.831,5.4599 17.66,5.5459 17.405,5.6309 L14.675,6.9109 C10.579,8.8729 7.935,11.5179 6.655,15.0159 C5.972,16.8919 5.716,18.8549 5.716,21.0729 C5.716,29.6049 10.238,40.9509 15.357,51.8719 C19.708,61.1709 24.998,71.6649 31.055,77.7219 M42.231,88.6419 C36.771,88.6419 31.738,86.2539 26.96,81.5619 C20.22,74.9069 14.675,64.0719 10.152,54.3459 C5.802,45.0459 3.242,38.3069 1.621,32.4199 C0.512,28.4099 0,24.7419 0,21.4139 C0,18.4279 0.427,15.6979 1.365,13.3099 C3.242,8.3609 6.825,4.4369 12.285,1.9619 L15.101,0.6829 C16.125,0.1709 17.234,-0.0001 18.343,-0.0001 C21.158,-0.0001 23.974,1.5359 25.339,4.4369 L30.97,16.5509 C31.481,17.5749 31.738,18.6839 31.738,19.7929 C31.738,22.5229 30.031,25.5099 27.215,26.7889 L23.376,28.5809 C22.865,28.8369 22.268,29.5189 22.268,30.2869 C22.268,30.6279 22.268,30.8839 22.438,31.2249 L35.747,59.8059 C36.003,60.4029 36.686,60.9149 37.539,60.9149 C37.795,60.9149 38.136,60.9149 38.392,60.7439 L42.231,58.9529 C43.255,58.4409 44.364,58.2709 45.473,58.2709 C48.203,58.2709 51.274,59.8059 52.554,62.7069 L58.185,74.8219 C58.697,75.8449 58.868,76.9539 58.868,78.0639 C58.868,80.9639 57.246,83.7789 54.431,85.0589 L51.701,86.3389 C48.459,87.8739 45.303,88.6419 42.231,88.6419" id="phone" fill="#000000"></path>
    </g>
</svg>