<?xml version="1.0" encoding="UTF-8" standalone="no"?>
<svg width="71px" height="77px" viewBox="0 0 71 77" version="1.1" xmlns="http://www.w3.org/2000/svg" xmlns:xlink="http://www.w3.org/1999/xlink">
    <!-- Generator: Sketch 3.7.2 (28276) - http://www.bohemiancoding.com/sketch -->
    <title>search</title>
    <desc>Created with Sketch.</desc>
    <defs></defs>
    <g id="Page-1" stroke="none" stroke-width="1" fill="none" fill-rule="evenodd">
        <path d="M25.765,46.1552 C36.771,46.1552 45.729,37.0272 45.729,25.7652 C45.729,14.5042 36.771,5.3752 25.765,5.3752 C14.759,5.3752 5.801,14.5042 5.801,25.7652 C5.801,37.0272 14.759,46.1552 25.765,46.1552 L25.765,46.1552 Z M69.361,71.4942 C69.788,72.0052 70.043,72.6022 70.043,73.2862 C70.043,74.7352 68.764,76.2712 67.143,76.2712 C66.375,76.2712 65.522,75.9302 64.925,75.2482 L40.354,47.0082 C36.259,49.8242 31.225,51.5302 25.765,51.5302 C11.517,51.5302 0,40.0122 0,25.7652 C0,11.5172 11.517,0.0002 25.765,0.0002 C40.013,0.0002 51.531,11.5172 51.531,25.7652 C51.531,32.5052 48.971,38.5622 44.79,43.1692 L69.361,71.4942 Z" id="search" fill="#000000"></path>
    </g>
</svg>